<svg xmlns="http://www.w3.org/2000/svg" xmlns:xlink="http://www.w3.org/1999/xlink" viewBox="-192.75 -.5 1156.5 406"><style>.B{pointer-events:all}.C{fill:#4188e0}.D{font-family:Helvetica,sans-Serif}.E{text-anchor:middle}.F{stroke-miterlimit:10}.G{fill:none}.H{pointer-events:stroke}.I{stroke:#4188e0}.J{stroke-width:3}.K{font-size:11px}.L{fill:#fff}.M{stroke:#666666}.N{stroke-width:2}.O{fill:#000}.P{font-size:12px}</style><g class="F I J"><path d="M81 95h69.9" class="G H"/><use xlink:href="#B" class="B C"/></g><circle cx="41" cy="95" r="40" class="B L M N"/><text x="40.5" y="98.5" class="D E O P">construct</text><g class="F I J"><path d="M241 95h69.9" class="G H"/><use xlink:href="#B" x="160" class="B C"/></g><circle cx="201" cy="95" r="40" class="B L M N"/><text x="200.5" y="98.5" class="D E O P">create</text><g class="F I J"><path d="M361 55V15H201V45" class="G H"/><use xlink:href="#C" class="B C"/></g><text x="280.5" y="8.5" class="C D E K">CANCELED or WAITING</text><g class="F I J"><path d="M401 95h69.9" class="G H"/><use xlink:href="#B" x="320" class="B C"/></g><text x="432.5" y="88.5" class="C D E K">SUCCESS</text><g class="F I J"><path d="M361 135v20H201V205" class="G H"/><use xlink:href="#C" y="160" class="B C"/></g><text x="285.5" y="148.5" class="C D E K">ERROR</text><path d="m361 55 40 40-40 40-40-40z" class="B F L M N"/><text x="360.5" y="92.5" class="D E O P">Operation<tspan x="360.5" y="107.5">result</tspan></text><g class="F I J"><path d="M561 95h69.9" class="G H"/><use xlink:href="#B" x="480" class="B C"/></g><text x="591.5" y="88.5" class="C D E K">No</text><g class="F I J"><path d="M521 55V15h240v240h-29.9" class="G H"/><path d="m724.4 255 9-4.5-2.3 4.5 2.3 4.5z" class="B C"/></g><text x="633.5" y="8.5" class="C D E K">Yes</text><path d="m521 55 40 40-40 40-40-40z" class="B F L M N"/><text x="520.5" y="92.5" class="D E O P">Execution<tspan x="520.5" y="107.5">disabled</tspan></text><g class="F I J"><path d="M681 135v69.9" class="G H"/><use xlink:href="#C" x="480" y="160" class="B C"/></g><circle cx="681" cy="95" r="40" class="B L M N"/><text x="680.5" y="98.5" class="D E O P">execute</text><g class="F"><g stroke="#000"><path d="m481 255-73.6.1" class="G H"/><path d="m402.1 255.1 7-3.5-1.7 3.5 1.7 3.5z" class="B"/></g><g class="I J"><path d="M681 295v40H361v-29.9" class="G H"/><use xlink:href="#D" class="B C"/></g></g><text x="521.5" y="328.5" class="C D E K">Yes</text><path d="m681 215 40 40-40 40-40-40z" class="B F L M N"/><text x="680.5" y="249.5" class="D E O P">Drawing<tspan x="680.5" y="264.5">disabled</tspan></text><g class="F I J"><path d="M481 255h-69.9" class="G H"/><use xlink:href="#E" class="B C"/><path d="M361 215v-20h160v-49.9" class="G H"/><use xlink:href="#D" x="160" y="-160" class="B C"/></g><text x="440.5" y="188.5" class="C D E K">No</text><path d="m361 215 40 40-40 40-40-40z" class="B F L M N"/><text x="360.5" y="249.5" class="D E O P">Deletion<tspan x="360.5" y="264.5">requested</tspan></text><circle cx="41" cy="205" r="40" class="B L M N"/><text x="40.5" y="208.5" class="D E O P">destruct</text><g class="F I J"><path d="M321 255h-69.9" class="G H"/><use xlink:href="#E" x="-160" class="B C"/></g><text x="291.5" y="247.5" class="C D E K">Yes</text><g class="F I J"><path d="M161 255h-40v80H91.1" class="G H"/><path d="m84.3 335 9-4.5-2.2 4.5 2.3 4.5z" class="B C"/></g><circle cx="201" cy="255" r="40" class="B L M N"/><text x="200.5" y="258.5" class="D E O P">delete</text><g class="F I J"><path d="M641 255h-69.9" class="G H"/><use xlink:href="#E" x="160" class="B C"/></g><text x="610.5" y="248.5" class="C D E K">No</text><circle cx="521" cy="255" r="40" class="B L M N"/><text x="520.5" y="258.5" class="D E O P">draw</text><g class="F I J"><path d="M41 295v-39.9" class="G H"/><use xlink:href="#D" x="-320" y="-50" class="B C"/></g><text x="61.5" y="278.5" class="C D E K">Yes</text><g class="F I J"><path d="M41 375v20h160V305.2" class="G H"/><use xlink:href="#D" x="-160" class="B C"/></g><text x="120.5" y="388.5" class="C D E K">No</text><path d="m41 295 40 40-40 40-40-40z" class="B F L M N"/><text x="40.5" y="332.5" class="D E K O">All children<tspan x="40.5" y="347.5">deleted</tspan></text><defs><path id="B" d="m157.7 95-9 4.5 2.2-4.5-2.3-4.5z"/><path id="C" d="m201 51.6-4.5-9L201 45l4.5-2.3z"/><path id="D" d="m361 298.4 4.5 9-4.5-2.3-4.5 2.3z"/><path id="E" d="m404.4 255 9-4.5-2.3 4.5 2.3 4.5z"/></defs></svg>
