<svg xmlns="http://www.w3.org/2000/svg" viewBox="0 0 454.8 381.7" width="66" height="55"><path fill="#fff" d="m173.3 309.7-50.4 25.2.2-43.7-74.4 26.2 43.8-58.7-49.4-7.7 38.4-37.1-62.2-20.5 73.1-23.7-20.2-36.4 53.5-9-16.1-55 60.3 23.2L190 49.2l37.5 24.2 39.9-58.9L281.5 72l50.4-25.2-.2 43.7L406 64.4 362.3 123l49.3 7.7-38.3 37.2 62.1 20.4-73.1 23.7 20.2 36.5-53.4 9 16.1 55-60.3-23.3-20.1 43.3-37.5-24.2-39.9 58.9z"/><path fill="#231f20" d="m264.8 29.1 12.7 51.7 48.4-24.2-.3 42.4 63.8-22.4-37.9 50.9 47.2 7.4-36.7 35.6 54.1 17.8-62.5 20.3 19.6 35.4-51.8 8.7 14.6 49.8-54.2-20.9-19.5 42.1-36.6-23.6-35.7 52.6-12.7-51.7-48.4 24.2.2-42.5-63.8 22.4 37.9-50.9-47.2-7.3 36.8-35.7-54.1-17.8 62.5-20.3-19.6-35.4 51.8-8.7-14.6-49.8 54.2 20.9L192.5 58l36.6 23.6 35.7-52.5M270 0l-15.2 22.3-29.1 42.8L199 47.9l-11.6-7.5-5.8 12.5-14.8 32-43.7-16.8-22.6-8.7 6.8 23.3 10.8 36.9-38.5 6.4-16.7 2.8 8.2 14.8 12.6 22.7L35 182.1 0 193.4l34.9 11.5 35.2 11.6-22.6 21.8-17.3 16.8 23.8 3.7 27.6 4.3-26 34.9-23.5 31.5 37.1-13 47.8-16.8-.1 25.4-.1 19.5 17.5-8.7 35-17.5 9.1 37 6.4 26.2 15.1-22.3 29.1-42.8 26.8 17.3 11.6 7.5 5.8-12.5 14.8-31.9 43.7 16.8 22.6 8.7-6.8-23.3-10.8-36.9 38.4-6.4 16.7-2.8-8.2-14.8-12.6-22.7 48.7-15.8 35-11.3-34.9-11.5-35.2-11.6 22.6-21.9 17.3-16.8-23.8-3.7-27.6-4.3 26-34.9 23.5-31.5-37.1 13L337.7 82l.1-25.5.2-19.5-17.5 8.7-35 17.5-9.1-37.1L270 0z"/><path fill="#ce000c" d="m193.1 335.3-11-44.7-46 23 .2-41-51.3 18 31-41.6-44.8-7 35-33.9-44.5-14.6 49.9-16.2-18.9-34.2 49.7-8.3-12.8-43.7 46.9 18.1 18.9-40.8 35.6 23 30.5-45 11 44.7 46-23-.2 41 51.3-18-31 41.5 44.8 7-35 33.9 44.5 14.6-49.9 16.2 18.9 34.2-49.7 8.3 12.8 43.7-46.9-18.1-18.9 40.7-35.6-23-30.5 45.2z"/><path fill="#fff" d="m245.7 158.1-21 2.3a28 28 0 0 0-22 17.2l-12.2 38.7c-2.7 8.5 2.8 14.5 12.3 13.4l36.7-4.1 5.4-17-34.8 3.9 2.9-9.2 19.1-2.1a28.2 28.2 0 0 0 22-17.2l4-12.5c2.6-8.4-3-14.4-12.4-13.4m-10.2 26.4-17.2 1.9.2-.5 2.7-8.6 17.2-1.9-2.9 9.1zm-51.2-41.7-18.5 58-7.9-55.1-19.3 2.2-29.1 91.8 19-2.1 18.4-57.6 8.2 54.7s.3-.9 0 0l19-2.1 29.1-91.8c-.9-.1-17.9 1.8-18.9 2m145.4 5.7-11.9 37.6c-3.3 11-11.3 18.7-11.3 18.7s-3.4-6.3.1-17.4l11.9-37.6-18.1 2-11.9 37.6c-3.4 10-11.3 18.6-11.3 18.6s-2.7-8.5.1-17.4l11.8-37.3-18.1 2-11.8 37.4a35.3 35.3 0 0 0 3.8 29.9l20.5-2.2 1.1-1.1 4.7-5.1 2 4.1.8 1.2 20.8-2.3c16.5-12.4 18.4-18.4 23-32.9l11.9-37.6c-1.1 0-17.1 1.7-18.1 1.8"/></svg>